<!-- TODO(fitsum): drop the final solid-dandelion brand SVG here.
     The full-colour dandelion currently lives at /public/logo.svg; this is a
     simplified monochrome placeholder for use as a small mark/icon. -->
<svg xmlns="http://www.w3.org/2000/svg" viewBox="0 0 100 100" fill="none" role="img" aria-label="Evonaire dandelion">
  <g stroke="#d9b574" stroke-width="3" stroke-linecap="round">
    <line x1="50" y1="50" x2="50" y2="18" />
    <line x1="50" y1="50" x2="72" y2="28" />
    <line x1="50" y1="50" x2="82" y2="50" />
    <line x1="50" y1="50" x2="72" y2="72" />
    <line x1="50" y1="50" x2="28" y2="72" />
    <line x1="50" y1="50" x2="18" y2="50" />
    <line x1="50" y1="50" x2="28" y2="28" />
    <line x1="50" y1="50" x2="61" y2="20" />
    <line x1="50" y1="50" x2="39" y2="20" />
    <line x1="50" y1="50" x2="80" y2="39" />
  </g>
  <g fill="#d9b574">
    <circle cx="50" cy="18" r="3" /><circle cx="72" cy="28" r="3" />
    <circle cx="82" cy="50" r="3" /><circle cx="72" cy="72" r="3" />
    <circle cx="28" cy="72" r="3" /><circle cx="18" cy="50" r="3" />
    <circle cx="28" cy="28" r="3" /><circle cx="61" cy="20" r="3" />
    <circle cx="39" cy="20" r="3" /><circle cx="80" cy="39" r="3" />
    <circle cx="50" cy="50" r="6" />
  </g>
</svg>
